<?xml version="1.0" encoding="utf-8"?>
<!-- Generator: Adobe Illustrator 24.0.1, SVG Export Plug-In . SVG Version: 6.00 Build 0)  -->
<svg version="1.2" baseProfile="tiny" id="Слой_1"
	 xmlns="http://www.w3.org/2000/svg" xmlns:xlink="http://www.w3.org/1999/xlink" x="0px" y="0px" viewBox="0 0 466 110"
	 xml:space="preserve">
<path fill="#117FA2" d="M54.4,76l-3-8.1H34L30.8,76H17.6L36,28h13.6l18.1,48H54.4z M37.4,58.5h10.7l-5.4-15.6L37.4,58.5z"/>
<path fill="#117FA2" d="M73.2,76V28h31.2v10.6H85.8v8.3h4.9c7.2,0,12.2,1.6,15.2,4.7c2.4,2.6,3.7,5.9,3.7,9.9c0,4.2-1.3,7.6-4,10.2
	c-2.9,2.9-8,4.3-15.3,4.3H73.2z M85.8,66.3h4.3c2.6,0,4.5-0.6,5.5-1.7c0.8-0.9,1.2-2,1.2-3.4c0-1.5-0.5-2.7-1.4-3.6
	c-1-0.9-2.8-1.3-5.3-1.3h-4.3V66.3z"/>
<path fill="#117FA2" d="M168.3,52c0,7.1-2.5,13.1-7.6,17.9c-5,4.8-11.3,7.1-18.9,7.1s-13.9-2.4-18.9-7.1c-5-4.8-7.6-10.8-7.6-17.9
	c0-3.3,0.6-6.6,1.9-9.7c1.3-3.2,3.2-5.9,5.7-8.3c5-4.8,11.3-7.1,18.9-7.1s13.9,2.4,18.9,7.1c2.5,2.4,4.4,5.1,5.7,8.3
	C167.6,45.5,168.3,48.7,168.3,52z M141.8,39c-3.9,0-7.2,1.3-9.7,3.8c-2.5,2.5-3.8,5.6-3.8,9.4c0,3.5,1.3,6.5,3.8,8.9
	c2.6,2.5,5.9,3.8,9.7,3.8c3.9,0,7.2-1.2,9.6-3.7c2.6-2.6,3.9-5.7,3.9-9.2c0-3.6-1.3-6.7-3.9-9.2C148.7,40.3,145.5,39,141.8,39z"/>
<path fill="#117FA2" d="M176.2,76V28h31.2v10.6h-18.7v8.3h4.9c7.2,0,12.2,1.6,15.2,4.7c2.4,2.6,3.7,5.9,3.7,9.9
	c0,4.2-1.3,7.6-4,10.2c-2.9,2.9-8,4.3-15.3,4.3H176.2z M188.7,66.3h4.3c2.6,0,4.5-0.6,5.5-1.7c0.8-0.9,1.2-2,1.2-3.4
	c0-1.5-0.5-2.7-1.4-3.6c-1-0.9-2.8-1.3-5.3-1.3h-4.3V66.3z"/>
<path fill="#117FA2" d="M249.9,76l-3-8.1h-17.4l-3.2,8.1h-13.2l18.4-48h13.6l18.1,48H249.9z M233,58.5h10.7l-5.4-15.6L233,58.5z"/>
<path fill="#FC3200" d="M320.9,65.4V76h-38.5l12.2-12.7c4.4-4.6,7.7-8.6,9.9-12.2c1.7-2.7,2.6-5.2,2.6-7.5c0-2-0.5-3.6-1.4-4.6
	c-0.9-1-2-1.4-3.5-1.4c-1.8,0-3.2,0.6-4.2,1.9c-1.1,1.3-1.6,3.3-1.7,5.9h-12.9c0-5.4,1.8-9.8,5.3-13.3c3.5-3.5,8-5.2,13.6-5.2
	c5.7,0,10.2,1.7,13.5,5c3.1,3.1,4.7,7.1,4.7,11.8c0,5.1-2.4,9.8-7.1,14.3l-8.1,7.5H320.9z"/>
<path fill="#FC3200" d="M365.7,52c0,8.4-2.4,14.9-7.1,19.6c-3.7,3.6-8.1,5.5-13.2,5.5c-5.1,0-9.6-1.8-13.2-5.5
	c-4.8-4.7-7.1-11.2-7.1-19.6c0-8.4,2.4-15,7.1-19.7c3.7-3.6,8.1-5.5,13.2-5.5c5.1,0,9.6,1.8,13.2,5.5C363.3,37,365.7,43.6,365.7,52z
	 M345.3,38.1c-1.4,0-2.7,0.5-3.8,1.5c-1.2,1.1-2.3,2.8-3,5.3c-0.8,2.5-1.2,4.9-1.2,7.2c0,2.2,0.4,4.5,1.1,7c0.7,2.5,1.8,4.4,3.1,5.5
	c1.1,1,2.4,1.5,3.8,1.5c1.4,0,2.7-0.5,3.8-1.5c1.2-1.1,2.3-2.9,3-5.4c0.8-2.5,1.2-4.8,1.2-7.1c0-2.3-0.4-4.7-1.2-7.2
	c-0.8-2.5-1.8-4.3-3-5.4C348,38.6,346.8,38.1,345.3,38.1z"/>
<path fill="#FC3200" d="M407.3,65.4V76h-38.5L381,63.3c4.4-4.6,7.7-8.6,9.9-12.2c1.7-2.7,2.6-5.2,2.6-7.5c0-2-0.5-3.6-1.4-4.6
	c-0.9-1-2-1.4-3.5-1.4c-1.8,0-3.2,0.6-4.2,1.9c-1.1,1.3-1.6,3.3-1.7,5.9h-12.9c0-5.4,1.8-9.8,5.3-13.3c3.5-3.5,8-5.2,13.6-5.2
	c5.7,0,10.2,1.7,13.5,5c3.1,3.1,4.7,7.1,4.7,11.8c0,5.1-2.4,9.8-7.1,14.3l-8.1,7.5H407.3z"/>
<path fill="#FC3200" d="M445.7,28v29.4h5.8v9.6h-5.8V76h-11.5v-9.1h-23.3v-8l18.5-31H445.7z M422.9,57.4h11.3V37.8L422.9,57.4z"/>
</svg>
